<svg xmlns="http://www.w3.org/2000/svg" viewBox="0 0 64 32" width="64" height="32">
  <rect width="64" height="32" fill="#1a1a2e" rx="2"/>
  <!-- Left eye - fiery -->
  <ellipse cx="20" cy="14" rx="7" ry="6" fill="#fff"/>
  <ellipse cx="20" cy="15" rx="5.5" ry="5" fill="#ff4444"/>
  <ellipse cx="20" cy="17" rx="4" ry="3" fill="#cc2222"/>
  <circle cx="21" cy="14" r="3" fill="#111"/>
  <circle cx="18" cy="11" r="1.5" fill="#fff"/>
  <!-- Angry brow -->
  <path d="M11 7 L27 11" stroke="#fff" stroke-width="2" stroke-linecap="round"/>
  <!-- Right eye -->
  <ellipse cx="44" cy="14" rx="7" ry="6" fill="#fff"/>
  <ellipse cx="44" cy="15" rx="5.5" ry="5" fill="#ff4444"/>
  <ellipse cx="44" cy="17" rx="4" ry="3" fill="#cc2222"/>
  <circle cx="43" cy="14" r="3" fill="#111"/>
  <circle cx="46" cy="11" r="1.5" fill="#fff"/>
  <!-- Angry brow -->
  <path d="M53 7 L37 11" stroke="#fff" stroke-width="2" stroke-linecap="round"/>
  <!-- Angry blush -->
  <ellipse cx="12" cy="20" rx="3.5" ry="1.8" fill="#ff4444" opacity="0.3"/>
  <ellipse cx="52" cy="20" rx="3.5" ry="1.8" fill="#ff4444" opacity="0.3"/>
  <!-- Gritted teeth mouth -->
  <path d="M26 25 L38 25" stroke="#fff" stroke-width="1.2" stroke-linecap="round"/>
  <line x1="29" y1="23.5" x2="29" y2="26.5" stroke="#fff" stroke-width="0.8"/>
  <line x1="32" y1="23.5" x2="32" y2="26.5" stroke="#fff" stroke-width="0.8"/>
  <line x1="35" y1="23.5" x2="35" y2="26.5" stroke="#fff" stroke-width="0.8"/>
</svg>