<svg xmlns="http://www.w3.org/2000/svg" viewBox="0 0 64 32" width="64" height="32">
  <rect width="64" height="32" fill="#1a1a2e" rx="2"/>
  <!-- Left eye - sharp and focused -->
  <ellipse cx="20" cy="15" rx="6" ry="7" fill="#fff"/>
  <ellipse cx="20" cy="16" rx="5" ry="5.5" fill="#00ff88"/>
  <ellipse cx="20" cy="17" rx="4" ry="3.5" fill="#00cc66"/>
  <circle cx="20" cy="15" r="2.5" fill="#111"/>
  <circle cx="18.5" cy="13" r="1" fill="#fff"/>
  <!-- Determined brow - sharp angle down -->
  <path d="M12 9 L28 13" stroke="#fff" stroke-width="2" fill="none" stroke-linecap="round"/>
  <!-- Right eye - sharp and focused -->
  <ellipse cx="44" cy="15" rx="6" ry="7" fill="#fff"/>
  <ellipse cx="44" cy="16" rx="5" ry="5.5" fill="#00ff88"/>
  <ellipse cx="44" cy="17" rx="4" ry="3.5" fill="#00cc66"/>
  <circle cx="44" cy="15" r="2.5" fill="#111"/>
  <circle cx="42.5" cy="13" r="1" fill="#fff"/>
  <!-- Determined brow - sharp angle down -->
  <path d="M52 9 L36 13" stroke="#fff" stroke-width="2" fill="none" stroke-linecap="round"/>
  <!-- Determined mouth - small line -->
  <path d="M28 24 L36 24" stroke="#fff" stroke-width="1.2" fill="none" stroke-linecap="round"/>
  <!-- Focus lines/aura -->
  <line x1="4" y1="16" x2="8" y2="16" stroke="#00ff88" stroke-width="0.8" opacity="0.4"/>
  <line x1="56" y1="16" x2="60" y2="16" stroke="#00ff88" stroke-width="0.8" opacity="0.4"/>
  <line x1="32" y1="2" x2="32" y2="6" stroke="#00ff88" stroke-width="0.8" opacity="0.4"/>
</svg>
