<svg xmlns="http://www.w3.org/2000/svg" viewBox="0 0 64 32" width="64" height="32">
  <rect width="64" height="32" fill="#1a1a2e" rx="2"/>
  <!-- Left eye - watery -->
  <ellipse cx="20" cy="14" rx="8" ry="8" fill="#fff"/>
  <ellipse cx="20" cy="15" rx="6" ry="6" fill="#4a9eff"/>
  <ellipse cx="20" cy="17" rx="5" ry="3.5" fill="#2d6bc4"/>
  <circle cx="20" cy="14" r="3" fill="#111"/>
  <circle cx="17" cy="11" r="2" fill="#fff"/>
  <circle cx="23" cy="15" r="0.8" fill="#fff" opacity="0.8"/>
  <!-- Tear -->
  <path d="M14 20 Q13 24 14 26" stroke="#6bc4ff" stroke-width="1.5" fill="none" stroke-linecap="round" opacity="0.7"/>
  <!-- Right eye -->
  <ellipse cx="44" cy="14" rx="8" ry="8" fill="#fff"/>
  <ellipse cx="44" cy="15" rx="6" ry="6" fill="#4a9eff"/>
  <ellipse cx="44" cy="17" rx="5" ry="3.5" fill="#2d6bc4"/>
  <circle cx="44" cy="14" r="3" fill="#111"/>
  <circle cx="41" cy="11" r="2" fill="#fff"/>
  <circle cx="47" cy="15" r="0.8" fill="#fff" opacity="0.8"/>
  <!-- Blush (dimmer) -->
  <ellipse cx="12" cy="21" rx="3.5" ry="1.8" fill="#ff6b9d" opacity="0.25"/>
  <ellipse cx="52" cy="21" rx="3.5" ry="1.8" fill="#ff6b9d" opacity="0.25"/>
  <!-- Wobbly sad mouth -->
  <path d="M28 26 Q32 23 36 26" stroke="#fff" stroke-width="1" fill="none" stroke-linecap="round"/>
</svg>