<svg xmlns="http://www.w3.org/2000/svg" viewBox="0 0 64 32" width="64" height="32">
  <rect width="64" height="32" fill="#1a1a2e" rx="2"/>
  <!-- Left eye - huge sparkly -->
  <ellipse cx="20" cy="12" rx="9" ry="10" fill="#fff"/>
  <ellipse cx="20" cy="13" rx="7" ry="8" fill="#4a9eff"/>
  <ellipse cx="20" cy="15" rx="6" ry="5" fill="#2d6bc4"/>
  <circle cx="20" cy="12" r="4" fill="#111"/>
  <circle cx="17" cy="9" r="2.5" fill="#fff"/>
  <circle cx="24" cy="13" r="1.2" fill="#fff" opacity="0.8"/>
  <!-- Star sparkle -->
  <polygon points="10,4 11,6 13,6 11.5,7.5 12,9.5 10,8 8,9.5 8.5,7.5 7,6 9,6" fill="#ffdd57" opacity="0.8"/>
  <!-- Right eye -->
  <ellipse cx="44" cy="12" rx="9" ry="10" fill="#fff"/>
  <ellipse cx="44" cy="13" rx="7" ry="8" fill="#4a9eff"/>
  <ellipse cx="44" cy="15" rx="6" ry="5" fill="#2d6bc4"/>
  <circle cx="44" cy="12" r="4" fill="#111"/>
  <circle cx="41" cy="9" r="2.5" fill="#fff"/>
  <circle cx="48" cy="13" r="1.2" fill="#fff" opacity="0.8"/>
  <!-- Star sparkle -->
  <polygon points="54,3 55,5 57,5 55.5,6.5 56,8.5 54,7 52,8.5 52.5,6.5 51,5 53,5" fill="#ffdd57" opacity="0.8"/>
  <!-- Blush -->
  <ellipse cx="11" cy="20" rx="4" ry="2" fill="#ff6b9d" opacity="0.35"/>
  <ellipse cx="53" cy="20" rx="4" ry="2" fill="#ff6b9d" opacity="0.35"/>
  <!-- O mouth -->
  <ellipse cx="32" cy="26" rx="3.5" ry="3" fill="#fff" opacity="0.9"/>
  <ellipse cx="32" cy="26" rx="2.5" ry="2" fill="#1a1a2e"/>
</svg>