<svg xmlns="http://www.w3.org/2000/svg" viewBox="0 0 64 32" width="64" height="32">
  <rect width="64" height="32" fill="#1a1a2e" rx="2"/>
  <!-- Left eye - wide with concern -->
  <ellipse cx="20" cy="14" rx="7.5" ry="9" fill="#fff"/>
  <ellipse cx="20" cy="15" rx="6" ry="7" fill="#4a9eff"/>
  <ellipse cx="20" cy="17" rx="5" ry="5" fill="#2d6bc4"/>
  <circle cx="20" cy="15" r="3.5" fill="#111"/>
  <circle cx="18" cy="12" r="1.8" fill="#fff"/>
  <!-- Worried brow - curved upward -->
  <path d="M13 8 Q20 6 27 8" stroke="#fff" stroke-width="1.5" fill="none" stroke-linecap="round"/>
  <!-- Right eye - wide with concern -->
  <ellipse cx="44" cy="14" rx="7.5" ry="9" fill="#fff"/>
  <ellipse cx="44" cy="15" rx="6" ry="7" fill="#4a9eff"/>
  <ellipse cx="44" cy="17" rx="5" ry="5" fill="#2d6bc4"/>
  <circle cx="44" cy="15" r="3.5" fill="#111"/>
  <circle cx="42" cy="12" r="1.8" fill="#fff"/>
  <!-- Worried brow - curved upward -->
  <path d="M37 8 Q44 6 51 8" stroke="#fff" stroke-width="1.5" fill="none" stroke-linecap="round"/>
  <!-- Worried mouth - small wavy -->
  <path d="M28 24 Q30 25 32 24 Q34 25 36 24" stroke="#fff" stroke-width="1" fill="none" stroke-linecap="round"/>
  <!-- Sweat drop -->
  <ellipse cx="10" cy="14" rx="1.5" ry="2.5" fill="#6bc4ff" opacity="0.6"/>
</svg>
