<svg xmlns="http://www.w3.org/2000/svg" viewBox="0 0 534 275">
  <defs>
    <linearGradient id="sparkle-gradient" x1="0" y1="0" x2="0" y2="1">
      <stop offset="0%" stop-color="#fde68a"/>
      <stop offset="50%" stop-color="#f59e0b"/>
      <stop offset="100%" stop-color="#fbbf24"/>
    </linearGradient>
  </defs>
  <g transform="translate(0,275) scale(0.1,-0.1)">
    <!-- Eyes -->
    <g class="glint-eyes" fill="currentColor">
      <path d="M735 2126 c-319 -60 -584 -289 -698 -603 l-32 -88 0 -360 c0 -354 0 -361 24 -430 105 -309 352 -538 662 -614 84 -21 104 -22 670 -19 l584 3 69 33 c94 44 204 155 249 249 l32 68 0 530 c0 528 0 530 -23 605 -48 153 -121 268 -244 386 -110 106 -210 167 -365 221 l-78 28 -390 2 c-286 1 -409 -2 -460 -11z m942 -801 c106 -31 183 -134 183 -242 -1 -226 -274 -348 -434 -195 -110 106 -105 280 12 382 44 39 111 68 163 69 14 1 48 -6 76 -14z"/>
      <path d="M3761 2129 c-281 -55 -553 -282 -659 -549 -57 -144 -57 -144 -57 -690 0 -505 0 -505 23 -562 50 -124 166 -240 290 -290 l57 -23 595 0 c550 0 600 1 665 19 302 81 541 312 637 616 22 73 23 86 23 430 0 346 -1 357 -23 425 -51 152 -105 240 -221 358 -90 93 -163 145 -278 199 -150 70 -213 78 -638 77 -203 -1 -390 -5 -414 -10z m98 -817 c62 -29 118 -94 136 -157 48 -164 -59 -319 -231 -333 -191 -15 -332 190 -250 363 62 132 216 188 345 127z"/>
    </g>
    <!-- Sparkle -->
    <path class="glint-sparkle" fill="url(#sparkle-gradient)" d="M2651 2698 c-6 -29 -22 -116 -36 -193 -29 -166 -46 -219 -69 -223 -10 -2 -40 6 -68 18 -27 12 -53 19 -56 15 -3 -3 4 -26 16 -50 43 -88 33 -96 -164 -145 -141 -35 -154 -39 -154 -50 0 -6 10 -12 23 -14 217 -46 317 -80 317 -109 0 -8 -11 -40 -25 -71 -14 -31 -25 -59 -25 -61 0 -2 21 5 47 16 26 11 58 19 72 17 35 -4 51 -54 92 -298 43 -256 51 -266 83 -93 40 220 67 347 81 373 16 31 26 31 109 -4 21 -9 40 -16 41 -16 2 0 -10 30 -26 68 l-29 67 21 18 c23 19 178 69 272 87 36 7 57 16 54 23 -2 7 -58 26 -125 43 -145 37 -212 61 -218 79 -3 7 2 27 10 44 9 17 21 42 26 56 l9 25 -52 -20 c-29 -11 -60 -20 -70 -20 -27 0 -44 51 -83 253 -19 100 -37 190 -40 200 -10 31 -22 18 -33 -35z"/>
  </g>
</svg>
